<svg width="25" height="25" viewBox="0 0 25 25" fill="none" xmlns="http://www.w3.org/2000/svg">
    <g clip-path="url(#clip0_1316_14091)">
        <path
            d="M13.8845 23.7939C16.3972 21.6666 19.474 20.3151 22.7405 19.904C23.1255 19.8532 23.4788 19.6643 23.7348 19.3723C23.9907 19.0803 24.1317 18.7052 24.1315 18.317V7.09795C24.1322 6.86707 24.0832 6.63875 23.9879 6.42845C23.8927 6.21815 23.7533 6.03079 23.5793 5.87906C23.4053 5.72732 23.2007 5.61477 22.9793 5.54902C22.758 5.48326 22.5252 5.46585 22.2965 5.49795C19.1934 5.97717 16.2826 7.30314 13.8845 9.32995C13.5976 9.55262 13.2447 9.67348 12.8815 9.67348C12.5183 9.67348 12.1655 9.55262 11.8785 9.32995C9.4809 7.30472 6.57127 5.97983 3.46952 5.50095C3.24114 5.46888 3.00853 5.48622 2.78743 5.5518C2.56632 5.61738 2.36188 5.72967 2.18791 5.88107C2.01394 6.03248 1.87451 6.21947 1.77904 6.4294C1.68357 6.63934 1.63429 6.86733 1.63452 7.09795V18.317C1.63435 18.7052 1.77537 19.0803 2.03129 19.3723C2.28722 19.6643 2.64058 19.8532 3.02552 19.904C6.29314 20.3146 9.37098 21.666 11.8845 23.7939C12.1707 24.0156 12.5225 24.1359 12.8845 24.1359C13.2465 24.1359 13.5983 24.0156 13.8845 23.7939Z"
            stroke="black" stroke-width="1.5" stroke-linecap="round" stroke-linejoin="round" />
        <path
            d="M20.9045 1.63794C18.3263 2.28348 15.9268 3.50203 13.8845 5.20294C13.5976 5.42561 13.2447 5.54647 12.8815 5.54647C12.5183 5.54647 12.1654 5.42561 11.8785 5.20294C9.83927 3.5034 7.44325 2.28523 4.86852 1.63894"
            stroke="black" stroke-width="1.5" stroke-linecap="round" stroke-linejoin="round" />
        <path d="M12.8845 9.67194V24.1349" stroke="black" stroke-width="1.5" stroke-linecap="round"
            stroke-linejoin="round" />
    </g>
    <defs>
        <clipPath id="clip0_1316_14091">
            <rect width="24" height="24" fill="white" transform="translate(0.884521 0.887939)" />
        </clipPath>
    </defs>
</svg>